<?xml version="1.0" ?><svg fill="none" height="24" viewBox="0 0 24 24" width="24" xmlns="http://www.w3.org/2000/svg"><path clip-rule="evenodd" d="M3 6H21V18H3V6ZM1 6C1 4.89545 1.89551 4 3 4H21C22.1045 4 23 4.89545 23 6V18C23 19.1046 22.1045 20 21 20H3C1.89551 20 1 19.1046 1 18V6ZM7 15C6.44775 15 6 14.5523 6 14V13H5C4.44775 13 4 12.5523 4 12C4 11.4477 4.44775 11 5 11H6V10C6 9.44769 6.44775 9 7 9C7.55225 9 8 9.44769 8 10V11H9C9.55225 11 10 11.4477 10 12C10 12.5523 9.55225 13 9 13H8V14C8 14.5523 7.55225 15 7 15ZM20 11C20 11.5523 19.5522 12 19 12C18.4478 12 18 11.5523 18 11C18 10.4477 18.4478 10 19 10C19.5522 10 20 10.4477 20 11ZM16 13C16 13.5523 16.4478 14 17 14C17.5522 14 18 13.5523 18 13C18 12.4477 17.5522 12 17 12C16.4478 12 16 12.4477 16 13Z" fill="#7f7f7f" fill-rule="evenodd"/></svg>